
<svg
  width="800"
  height="270"
  viewBox="0 0 800 270"
  xmlns="http://www.w3.org/2000/svg"
  role="img"
  aria-labelledby="title desc"
>

<title id="title">GitHub Stats for hir-al-14</title>

<desc id="desc">
GitHub activity statistics and monthly contribution graph.
</desc>

<style>

  .card {
    fill: #111923;
    stroke: #263747;
    stroke-width: 1;
  }

  .title {
    fill: #F1F7FF;
    font-size: 20px;
    font-weight: 600;
  }

  .number {
    fill: #F1F7FF;
    font-size: 15px;
    font-weight: 600;
  }

  .label {
    fill: #AFC5D8;
    font-size: 15px;
  }

  .icon {
    fill: #C7E5FF;
    font-size: 15px;
    font-weight: 600;
  }

  .small {
    fill: #AFC5D8;
    font-size: 12px;
  }

  .month {
    fill: #8299AA;
    font-size: 10px;
  }

  .grid {
    stroke: #20303F;
    stroke-width: 1;
  }

  .area {
    fill: #162B3D;
  }

  .graph {
    fill: none;
    stroke: #82CFFF;
    stroke-width: 3;
    stroke-linecap: round;
    stroke-linejoin: round;
  }

  .dot {
    fill: #D9EFFF;
    stroke: #82CFFF;
    stroke-width: 1;
  }

  text {
    font-family:
      -apple-system,
      BlinkMacSystemFont,
      "Segoe UI",
      Helvetica,
      Arial,
      sans-serif;
  }

</style>


<!-- BACKGROUND -->

<rect
  class="card"
  x="1"
  y="1"
  width="798"
  height="268"
  rx="14"
/>


<!-- TITLE -->

<text
  x="30"
  y="40"
  class="title"
>
  GitHub Stats
</text>


<!-- LEFT STATS -->

<text x="31" y="79" class="icon">●</text>

<text x="58" y="79" class="number">
  295
</text>

<text x="112" y="79" class="label">
  Contributions
</text>


<text x="31" y="110" class="icon">▣</text>

<text x="58" y="110" class="number">
  16
</text>

<text x="112" y="110" class="label">
  Public Repos
</text>


<text x="31" y="141" class="icon">⑂</text>

<text x="58" y="141" class="number">
  21
</text>

<text x="112" y="141" class="label">
  Total PRs
</text>


<text x="33" y="172" class="icon">!</text>

<text x="58" y="172" class="number">
  0
</text>

<text x="112" y="172" class="label">
  Total Issues
</text>


<text x="31" y="203" class="icon">▤</text>

<text x="58" y="203" class="number">
  3
</text>

<text x="112" y="203" class="label">
  Contributed To
</text>


<text x="31" y="234" class="icon">◷</text>

<text x="58" y="234" class="label">
  Joined GitHub 2 years ago
</text>


<!-- GRAPH GRID -->

<line
  x1="365"
  y1="76"
  x2="755"
  y2="76"
  class="grid"
/>

<line
  x1="365"
  y1="132.0"
  x2="755"
  y2="132.0"
  class="grid"
/>

<line
  x1="365"
  y1="188"
  x2="755"
  y2="188"
  class="grid"
/>


<!-- GRAPH AREA -->

<polygon
  points="365,188 365.0,186.2 400.5,188.0 435.9,188.0 471.4,187.4 506.8,179.5 542.3,180.7 577.7,175.8 613.2,172.8 648.6,171.6 684.1,182.5 719.5,188.0 755.0,76.0 755,188"
  class="area"
/>


<!-- GRAPH LINE -->

<polyline
  points="365.0,186.2 400.5,188.0 435.9,188.0 471.4,187.4 506.8,179.5 542.3,180.7 577.7,175.8 613.2,172.8 648.6,171.6 684.1,182.5 719.5,188.0 755.0,76.0"
  class="graph"
/>


<!-- GRAPH DOTS -->


    <circle
      cx="365.0"
      cy="186.2"
      r="3.5"
      class="dot"
    />
    
    <circle
      cx="400.5"
      cy="188.0"
      r="3.5"
      class="dot"
    />
    
    <circle
      cx="435.9"
      cy="188.0"
      r="3.5"
      class="dot"
    />
    
    <circle
      cx="471.4"
      cy="187.4"
      r="3.5"
      class="dot"
    />
    
    <circle
      cx="506.8"
      cy="179.5"
      r="3.5"
      class="dot"
    />
    
    <circle
      cx="542.3"
      cy="180.7"
      r="3.5"
      class="dot"
    />
    
    <circle
      cx="577.7"
      cy="175.8"
      r="3.5"
      class="dot"
    />
    
    <circle
      cx="613.2"
      cy="172.8"
      r="3.5"
      class="dot"
    />
    
    <circle
      cx="648.6"
      cy="171.6"
      r="3.5"
      class="dot"
    />
    
    <circle
      cx="684.1"
      cy="182.5"
      r="3.5"
      class="dot"
    />
    
    <circle
      cx="719.5"
      cy="188.0"
      r="3.5"
      class="dot"
    />
    
    <circle
      cx="755.0"
      cy="76.0"
      r="3.5"
      class="dot"
    />
    


<!-- MONTHS -->


        <text
          x="365.0"
          y="211"
          text-anchor="middle"
          class="month"
        >
          Oct
        </text>
        
        <text
          x="435.9"
          y="211"
          text-anchor="middle"
          class="month"
        >
          Dec
        </text>
        
        <text
          x="506.8"
          y="211"
          text-anchor="middle"
          class="month"
        >
          Feb
        </text>
        
        <text
          x="577.7"
          y="211"
          text-anchor="middle"
          class="month"
        >
          Apr
        </text>
        
        <text
          x="648.6"
          y="211"
          text-anchor="middle"
          class="month"
        >
          Jun
        </text>
        
        <text
          x="719.5"
          y="211"
          text-anchor="middle"
          class="month"
        >
          Aug
        </text>
        
        <text
          x="755.0"
          y="211"
          text-anchor="middle"
          class="month"
        >
          Sep
        </text>
        


<!-- GRAPH CAPTION -->

<text
  x="560.0"
  y="242"
  text-anchor="middle"
  class="small"
>
  monthly contributions · last 12 months
</text>

</svg>
